<svg xmlns="http://www.w3.org/2000/svg" aria-hidden="true" style="position:absolute;width:0;height:0;overflow:hidden">
  <defs>
    <symbol id="icon-play" viewBox="0 0 25 32">
      <path fill="#fff" d="M23.631 18.477 3.836 31.602C2.156 32.715 0 31.367 0 29.124V2.873C0 .633 2.153-.718 3.836.399l19.795 13.125c.382.249.7.61.921 1.044s.337.929.337 1.432-.116.997-.337 1.432a2.695 2.695 0 0 1-.921 1.044z" style="fill:var(--color1, #fff)"/>
    </symbol>
    <symbol id="icon-Group-1" viewBox="0 0 32 32">
      <path d="M27.414 24.586l-5.077-5.077c1.049-1.581 1.663-3.474 1.663-5.509 0-5.514-4.486-10-10-10s-10 4.486-10 10 4.486 10 10 10c2.035 0 3.928-0.614 5.509-1.663l5.077 5.077c0.78 0.781 2.048 0.781 2.828 0 0.781-0.781 0.781-2.047 0-2.828zM7 14c0-3.86 3.14-7 7-7s7 3.14 7 7-3.14 7-7 7-7-3.14-7-7z"></path>
    </symbol>
    <symbol id="icon-group-2" viewBox="0 0 32 32">
     <path d="M18.667 24c0 1.473-1.194 2.667-2.667 2.667s-2.667-1.194-2.667-2.667h5.333zM16 2.667c-5.16 0-9.333 4.773-9.333 10.667v3.053l-2.667 7.613h6.667c0 2.946 2.388 5.333 5.333 5.333s5.333-2.388 5.333-5.333h6.667l-2.667-7.613v-2.667c0-5.053-2.947-9.68-7.267-10.667-0.671-0.212-1.365-0.342-2.067-0.387zM7.76 21.333l1.427-4 0.147-0.493v-3.507c0-4.413 2.987-8 6.667-8 0.481-0.001 0.96 0.057 1.427 0.173 2.987 0.733 5.24 4.24 5.24 8.147v3.187l0.147 0.427 1.427 4.067h-16.48z"></path>
    </symbol>
    <symbol id="icon-group-3" viewBox="0 0 32 32">
      <path d="M16 15.503c2.784 0 5.041-2.257 5.041-5.041s-2.257-5.042-5.041-5.042v0c-2.784 0-5.041 2.257-5.041 5.042s2.257 5.041 5.041 5.041v0zM16 17.718c-6.703 0-11 3.699-11 5.5v3.363h22v-3.363c0-2.178-4.068-5.5-11-5.5z"></path>
    </symbol>
    
  </defs>
</svg>
